<svg xmlns="http://www.w3.org/2000/svg" xmlns:xlink="http://www.w3.org/1999/xlink" width="1080" zoomAndPan="magnify" viewBox="0 0 810 809.999993" height="1080" preserveAspectRatio="xMidYMid meet" version="1.0"><defs><clipPath id="b683a66186"><path d="M 125.476562 310.753906 L 286 310.753906 L 286 512 L 125.476562 512 Z M 125.476562 310.753906 " clip-rule="nonzero"/></clipPath><clipPath id="c2f4b13d46"><path d="M 489 310.753906 L 649.726562 310.753906 L 649.726562 512 L 489 512 Z M 489 310.753906 " clip-rule="nonzero"/></clipPath><clipPath id="686d8d6127"><path d="M 294 310.753906 L 484 310.753906 L 484 512 L 294 512 Z M 294 310.753906 " clip-rule="nonzero"/></clipPath></defs><g clip-path="url(#b683a66186)"><path fill="#6b5ef8" d="M 285.449219 425.070312 L 262.296875 425.070312 L 262.296875 355.027344 L 226.964844 355.027344 L 226.964844 425.070312 L 169.1875 425.070312 L 238.691406 310.765625 L 194.972656 310.765625 L 125.476562 425.070312 L 125.476562 460.382812 L 226.964844 460.382812 L 226.964844 511.261719 L 262.296875 511.261719 L 262.296875 460.382812 L 285.449219 460.382812 Z M 285.449219 425.070312 " fill-opacity="1" fill-rule="nonzero"/></g><g clip-path="url(#c2f4b13d46)"><path fill="#6b5ef8" d="M 649.722656 425.070312 L 626.570312 425.070312 L 626.570312 355.027344 L 591.25 355.027344 L 591.25 425.070312 L 533.472656 425.070312 L 602.96875 310.765625 L 559.246094 310.765625 L 489.753906 425.070312 L 489.753906 460.382812 L 591.25 460.382812 L 591.25 511.261719 L 626.570312 511.261719 L 626.570312 460.382812 L 649.722656 460.382812 Z M 649.722656 425.070312 " fill-opacity="1" fill-rule="nonzero"/></g><g clip-path="url(#686d8d6127)"><path fill="#6b5ef8" d="M 388.769531 511.261719 C 336.542969 511.261719 294.066406 466.332031 294.066406 411.09375 C 294.066406 355.859375 336.542969 310.972656 388.769531 310.972656 C 440.996094 310.972656 483.472656 355.902344 483.472656 411.128906 C 483.472656 466.355469 440.984375 511.261719 388.769531 511.261719 Z M 388.769531 343.027344 C 354.375 343.027344 326.394531 373.601562 326.394531 411.09375 C 326.394531 448.589844 354.375 479.171875 388.769531 479.171875 C 423.160156 479.171875 451.132812 448.601562 451.132812 411.09375 C 451.132812 373.589844 423.152344 343.027344 388.769531 343.027344 Z M 388.769531 343.027344 " fill-opacity="1" fill-rule="nonzero"/></g><path fill="#fb865d" d="M 372.898438 407.199219 C 373.710938 406.933594 374.542969 406.742188 375.390625 406.628906 C 375.792969 406.695312 375.03125 407.546875 374.582031 407.722656 C 374.582031 407.722656 375.183594 407.351562 375.050781 407.722656 C 374.921875 408.09375 374.199219 408.5625 374.199219 408.5625 L 373.742188 409.128906 C 373.742188 409.128906 374.035156 408.703125 374.265625 408.867188 C 374.496094 409.03125 373.664062 410.34375 373.664062 410.34375 L 373.261719 412.164062 L 371.535156 409.917969 Z M 372.898438 407.199219 " fill-opacity="1" fill-rule="nonzero"/><path fill="#0e133f" d="M 417.699219 446.953125 C 416.144531 446.773438 414.609375 446.46875 413.101562 446.035156 C 413.101562 446.417969 413.101562 446.832031 413.101562 447.28125 C 414.558594 447.679688 416.039062 447.960938 417.539062 448.132812 C 421.90625 448.644531 430.917969 451.558594 434.355469 457.457031 C 434.628906 457.128906 434.914062 456.8125 435.175781 456.484375 C 431.351562 450.445312 422.144531 447.453125 417.699219 446.953125 Z M 417.699219 446.953125 " fill-opacity="1" fill-rule="nonzero"/><path fill="#0e133f" d="M 371.753906 411.902344 C 371.6875 412.472656 372.332031 412.492188 372.332031 412.492188 C 372.332031 412.492188 372.496094 412.285156 372.582031 412.175781 C 372.441406 411.734375 372.25 411.3125 372.015625 410.910156 C 371.910156 411.234375 371.820312 411.566406 371.753906 411.902344 Z M 371.753906 411.902344 " fill-opacity="1" fill-rule="nonzero"/><path fill="#0e133f" d="M 372.582031 412.175781 C 372.867188 411.816406 373.160156 411.457031 373.457031 411.085938 C 373.1875 410.503906 372.871094 409.953125 372.507812 409.425781 C 372.308594 409.925781 372.144531 410.441406 372.015625 410.878906 C 372.253906 411.289062 372.441406 411.722656 372.582031 412.175781 Z M 372.582031 412.175781 " fill-opacity="1" fill-rule="nonzero"/><path fill="#0e133f" d="M 369.667969 406.148438 L 368.847656 407.023438 C 368.847656 407.023438 369.679688 407.820312 370.5625 408.878906 C 370.769531 408.484375 370.976562 408.105469 371.183594 407.785156 C 370.398438 406.847656 369.734375 406.214844 369.667969 406.148438 Z M 369.667969 406.148438 " fill-opacity="1" fill-rule="nonzero"/><path fill="#0e133f" d="M 378.085938 427.210938 C 375.007812 421.851562 374.253906 414.742188 374.113281 413.015625 C 374.003906 413.222656 373.875 413.414062 373.730469 413.597656 C 373.410156 413.980469 373.199219 414.417969 373.097656 414.90625 C 373.605469 419.453125 374.921875 423.75 377.050781 427.800781 C 380.273438 433.425781 388.167969 440.09375 390.253906 441.796875 C 390.035156 441.089844 389.828125 440.390625 389.621094 439.691406 C 386.585938 437.09375 380.675781 431.710938 378.085938 427.210938 Z M 378.085938 427.210938 " fill-opacity="1" fill-rule="nonzero"/><path fill="#0e133f" d="M 437.917969 496.6875 C 434.027344 508.21875 413.203125 520.707031 386.070312 515.804688 C 367.429688 512.464844 364.402344 513.828125 361.738281 515.03125 C 360.871094 515.476562 359.953125 515.765625 358.984375 515.894531 C 357.398438 516.265625 355.875 516.808594 354.410156 517.519531 C 346.207031 520.992188 329.125 528.21875 297.144531 520.664062 C 270.933594 514.460938 252.871094 488.550781 243.519531 443.632812 C 240.375 428.523438 232.71875 422.210938 219.40625 423.78125 C 218.324219 423.9375 217.367188 424.367188 216.53125 425.070312 L 219.144531 425.070312 C 219.285156 425.070312 219.40625 424.996094 219.546875 424.972656 C 232.292969 423.476562 239.316406 429.339844 242.351562 443.882812 C 243.890625 451.320312 247.519531 468.722656 255.699219 485.058594 C 265.867188 505.410156 279.726562 517.816406 296.863281 521.832031 C 305.59375 523.980469 314.453125 525.097656 323.445312 525.183594 C 328.859375 525.25 334.21875 524.730469 339.519531 523.625 C 344.820312 522.519531 349.941406 520.855469 354.878906 518.632812 C 356.246094 517.964844 357.667969 517.453125 359.148438 517.09375 C 360.226562 516.941406 361.253906 516.621094 362.230469 516.132812 C 364.742188 515.042969 367.582031 513.71875 385.863281 516.996094 C 414.511719 522.128906 436.34375 508.183594 439.378906 495.933594 C 439.398438 495.851562 439.398438 495.773438 439.378906 495.691406 C 438.933594 496.011719 438.417969 496.359375 437.917969 496.6875 Z M 437.917969 496.6875 " fill-opacity="1" fill-rule="nonzero"/><path fill="#0e133f" d="M 204.75 460.382812 C 203.914062 461.460938 202.960938 462.417969 201.890625 463.253906 C 200.816406 464.089844 199.65625 464.785156 198.410156 465.332031 C 197.160156 465.875 195.867188 466.261719 194.523438 466.480469 C 193.179688 466.703125 191.828125 466.757812 190.472656 466.640625 C 183.023438 466.257812 176.800781 463.363281 173.378906 458.699219 C 170.367188 454.605469 169.613281 449.257812 171.195312 443.230469 C 174.660156 429.820312 175.160156 422.691406 172.789062 419.207031 L 172.082031 420.367188 C 173.859375 423.726562 173.171875 430.660156 170.027344 442.945312 C 168.355469 449.3125 169.164062 455.011719 172.441406 459.464844 C 176.078125 464.421875 182.640625 467.492188 190.441406 467.894531 L 191.53125 467.894531 C 192.96875 467.917969 194.386719 467.765625 195.785156 467.441406 C 197.183594 467.117188 198.519531 466.625 199.800781 465.972656 C 201.078125 465.320312 202.257812 464.523438 203.339844 463.582031 C 204.425781 462.640625 205.378906 461.578125 206.199219 460.402344 Z M 204.75 460.382812 " fill-opacity="1" fill-rule="nonzero"/><path fill="#0e133f" d="M 204.464844 373.578125 C 204.257812 373.097656 199.277344 361.699219 187.558594 358.152344 C 175.839844 354.601562 161.117188 359.636719 155.578125 366.425781 C 152.445312 370.269531 152.074219 376.460938 152.300781 380.9375 L 153.460938 379.027344 C 153.460938 375.007812 154.027344 370.214844 156.496094 367.191406 C 161.683594 360.816406 176.21875 355.976562 187.195312 359.296875 C 198.371094 362.683594 203.304688 373.9375 203.351562 374.046875 C 203.398438 374.226562 203.503906 374.351562 203.667969 374.433594 C 203.832031 374.511719 204 374.515625 204.167969 374.445312 C 204.335938 374.371094 204.449219 374.25 204.503906 374.074219 C 204.558594 373.898438 204.539062 373.734375 204.441406 373.578125 Z M 204.464844 373.578125 " fill-opacity="1" fill-rule="nonzero"/><path fill="#fb865d" d="M 379.179688 445.6875 C 379.179688 445.6875 380.195312 442.628906 379.988281 441.886719 C 379.78125 441.144531 370.769531 420.332031 370.835938 419.960938 C 371.589844 418.921875 372.195312 417.800781 372.648438 416.597656 C 373.117188 414.820312 373.226562 414.109375 373.742188 413.5625 C 374.253906 413.015625 375.148438 410.769531 374.921875 410.167969 C 374.691406 409.566406 373.292969 411.257812 372.34375 412.492188 C 372.34375 412.492188 371.699219 412.492188 371.765625 411.902344 C 371.828125 411.3125 372.953125 407.734375 373.609375 407.535156 C 374.265625 407.339844 376.121094 406.324219 375.957031 405.40625 C 375.792969 404.488281 372.890625 406.402344 372.144531 406.640625 C 371.402344 406.878906 369.679688 410.769531 369.230469 411.597656 C 368.78125 412.425781 366.894531 417.527344 366.578125 418.585938 C 366.257812 419.644531 367.339844 422.070312 367.667969 423.09375 C 367.996094 424.121094 372.113281 440.226562 372.921875 441.035156 C 373.042969 442.132812 372.917969 443.203125 372.539062 444.246094 C 372.539062 444.246094 376.601562 446.253906 379.179688 445.6875 Z M 379.179688 445.6875 " fill-opacity="1" fill-rule="nonzero"/><path fill="#0e133f" d="M 350.695312 435.5625 C 351.007812 435.085938 351.445312 434.847656 352.015625 434.84375 C 352.015625 434.84375 351.101562 433.75 348.238281 434.175781 C 348.238281 434.175781 348.894531 433.085938 351.230469 433.085938 C 350.726562 432.566406 350.164062 432.113281 349.550781 431.722656 C 348.9375 431.335938 348.289062 431.027344 347.601562 430.792969 C 346.914062 430.5625 346.207031 430.414062 345.484375 430.347656 C 344.761719 430.285156 344.042969 430.304688 343.324219 430.410156 C 343.277344 430.070312 343.335938 429.753906 343.503906 429.453125 C 343.667969 429.152344 343.90625 428.933594 344.21875 428.792969 C 344.21875 428.792969 340.089844 428.0625 335.6875 434.253906 C 335.328125 433.914062 335.101562 433.496094 335.007812 433.007812 C 334.917969 432.519531 334.980469 432.050781 335.199219 431.601562 C 335.199219 431.601562 332.226562 434.875 332.542969 438.085938 C 332.859375 441.296875 333.265625 441.679688 333.265625 441.679688 C 333.265625 441.679688 331.027344 441.121094 330.90625 439.953125 C 330.90625 439.953125 330.097656 443.230469 332.28125 445.269531 C 331.78125 446.304688 331.679688 447.375 331.988281 448.480469 C 331.988281 448.480469 332.324219 447.179688 332.90625 446.984375 C 332.90625 446.984375 335.089844 453.351562 339.730469 454.34375 C 344.371094 455.335938 346.875 454.070312 346.875 454.070312 C 346.875 454.070312 350.5 453.472656 351.132812 454.640625 L 352.015625 452.585938 L 353.164062 452.117188 C 353.164062 452.117188 352.015625 442.890625 352.015625 442.824219 C 352.015625 442.757812 350.695312 435.5625 350.695312 435.5625 Z M 350.695312 435.5625 " fill-opacity="1" fill-rule="nonzero"/><path fill="#fb865d" d="M 350.695312 435.5625 C 351.671875 436.011719 352.691406 436.261719 353.765625 436.304688 C 355.035156 436.152344 356.308594 436.074219 357.585938 436.078125 C 357.851562 436.261719 357.585938 437.648438 358.035156 437.921875 C 358.484375 438.195312 361.039062 441.199219 360.820312 442.683594 C 360.601562 444.167969 357.402344 445.511719 357.804688 446.765625 C 358.210938 448.023438 361.082031 449.683594 361.082031 449.683594 C 361.417969 450.234375 361.570312 450.835938 361.542969 451.484375 C 361.441406 452.421875 356.234375 456.460938 356.234375 456.460938 L 356.144531 456.867188 L 351.527344 453.699219 C 351.71875 452.785156 351.738281 451.863281 351.589844 450.9375 C 351.589844 450.9375 352.335938 451.320312 352.445312 451.867188 C 352.445312 451.867188 352.695312 448.589844 350.71875 446.722656 C 350.71875 446.722656 348.195312 447.214844 346.808594 446.132812 C 345.421875 445.050781 345.976562 442.703125 347.167969 442.597656 L 348.71875 442.433594 C 348.71875 442.433594 345.867188 441.863281 344.789062 440.597656 C 346.605469 440.574219 348.398438 440.363281 350.171875 439.964844 C 350.171875 439.964844 346.894531 439.222656 345.914062 438.871094 C 345.914062 438.863281 349.375 437.902344 350.695312 435.5625 Z M 350.695312 435.5625 " fill-opacity="1" fill-rule="nonzero"/><path fill="#0e133f" d="M 395.847656 456.058594 C 395.847656 456.058594 396.65625 432.988281 397.191406 427.058594 C 397.726562 421.128906 398.085938 408.5625 403.839844 406.3125 C 409.597656 404.0625 433.972656 388.265625 433.972656 388.265625 L 439.761719 394.105469 C 439.761719 394.105469 425.214844 408.429688 421.304688 409.949219 C 417.394531 411.464844 413.222656 415.113281 412.6875 417.175781 C 412.152344 419.242188 413.136719 442.09375 413.09375 443.664062 C 413.046875 445.238281 413.539062 466.113281 413.09375 468.132812 C 412.644531 470.15625 410.753906 476.257812 404.246094 477.164062 L 399.253906 477.382812 C 399.253906 477.382812 394.152344 461.855469 395.847656 456.058594 Z M 395.847656 456.058594 " fill-opacity="1" fill-rule="nonzero"/><path fill="#0e133f" d="M 404.5625 475.722656 L 407.839844 475.898438 C 407.839844 475.898438 413.539062 474.652344 415.605469 472.042969 C 417.667969 469.433594 416.695312 461.539062 411.738281 454.738281 L 404.519531 424.164062 C 407.53125 424.734375 410.566406 424.933594 413.628906 424.765625 C 418.136719 424.4375 434.105469 420.191406 434.105469 420.191406 L 432.226562 411.640625 C 432.226562 411.640625 402.519531 413.257812 401.164062 413.257812 C 399.8125 413.257812 390.113281 412.382812 387.558594 415.070312 C 385 417.753906 385.875 426.457031 386.75 429.953125 C 387.621094 433.445312 394.394531 455.414062 394.394531 455.414062 Z M 404.5625 475.722656 " fill-opacity="1" fill-rule="nonzero"/><path fill="#fb865d" d="M 346.449219 469.980469 C 346.449219 469.980469 340.921875 479.632812 340.921875 481.992188 C 341.121094 484.441406 341.707031 486.796875 342.679688 489.054688 C 343.34375 490.878906 353.601562 509.058594 354.191406 509.734375 C 354.292969 511.375 354.527344 513 354.890625 514.605469 C 355.484375 516.4375 356.234375 518.199219 357.140625 519.898438 C 357.636719 519.902344 358.128906 519.84375 358.613281 519.726562 C 358.613281 519.726562 358.613281 520.457031 358.996094 520.554688 C 359.609375 520.566406 360.21875 520.519531 360.820312 520.414062 C 360.820312 520.414062 360.820312 520.773438 361.5625 520.773438 C 362.304688 520.773438 363.222656 520.371094 363.3125 519.988281 C 363.796875 520.214844 364.285156 520.214844 364.773438 519.988281 C 365.332031 519.582031 364.949219 516.199219 364.949219 516.199219 C 364.949219 516.199219 365.398438 516.492188 365.460938 515.816406 C 365.527344 515.140625 365.460938 513.566406 364.96875 513.140625 C 364.480469 512.714844 360.65625 508.5 359.628906 508.019531 C 359.628906 508.019531 356.144531 501.46875 354.660156 497.878906 C 353.175781 494.285156 351.296875 486.609375 348.109375 484.414062 C 348.109375 484.414062 353.675781 478.355469 354.484375 477.1875 Z M 346.449219 469.980469 " fill-opacity="1" fill-rule="nonzero"/><path fill="#ffbb19" d="M 358.503906 453.296875 C 356.414062 453.613281 354.632812 454.535156 353.164062 456.058594 C 350.761719 458.546875 344.339844 471.191406 344.339844 471.191406 C 345.875 471.902344 347.265625 472.828125 348.511719 473.976562 C 350.289062 475.824219 352.175781 477.558594 354.167969 479.171875 C 354.53125 479.238281 360.273438 469.835938 360.273438 469.835938 C 360.273438 469.835938 364.644531 475.898438 376.046875 477.972656 C 382.265625 479.101562 388.53125 479.640625 394.851562 479.589844 C 398.171875 479.234375 401.410156 478.507812 404.5625 477.40625 C 404.5625 477.40625 404.5625 476.804688 403.566406 476.617188 C 402.574219 476.433594 397.671875 469.621094 397.015625 464.671875 C 396.585938 461.21875 396.359375 457.75 396.339844 454.269531 C 396.339844 454.269531 396.03125 453.710938 395.53125 453.996094 C 394.859375 454.417969 394.132812 454.679688 393.34375 454.78125 C 392.765625 454.78125 384.609375 450.632812 378.4375 449.617188 C 376.089844 449.171875 373.726562 448.953125 371.339844 448.960938 C 367.789062 449.039062 361.007812 449.367188 361.007812 449.367188 C 361.007812 449.367188 360.667969 449.300781 360.667969 449.847656 C 360.667969 450.390625 360.371094 452.816406 358.503906 453.296875 Z M 358.503906 453.296875 " fill-opacity="1" fill-rule="nonzero"/><path fill="#ffbb19" d="M 364.566406 450.03125 C 364.566406 450.03125 370.257812 443.90625 371.402344 443.230469 C 372.789062 443.882812 374.246094 444.273438 375.773438 444.410156 C 378.066406 444.582031 380.65625 444.472656 380.960938 444.617188 C 381.265625 444.757812 378.777344 451.855469 378.777344 451.855469 C 378.777344 451.855469 366.050781 450.816406 364.566406 450.03125 Z M 364.566406 450.03125 " fill-opacity="1" fill-rule="nonzero"/><path fill="#fb865d" d="M 434.652344 411.542969 L 442.101562 411.542969 C 442.101562 411.542969 443.988281 412.722656 443.957031 414.414062 C 443.824219 415.664062 443.382812 416.796875 442.636719 417.808594 L 436.476562 418.3125 Z M 434.652344 411.542969 " fill-opacity="1" fill-rule="nonzero"/><path fill="#0e133f" d="M 450.28125 397.675781 C 449.015625 397.164062 447.277344 397.21875 446.820312 398.515625 C 445.148438 403.277344 441.195312 410.527344 441.140625 410.976562 C 441.085938 411.421875 441.226562 411.542969 441.226562 411.542969 L 441.664062 411.542969 C 441.664062 411.542969 443.3125 412.929688 443.3125 414.207031 C 443.160156 415.460938 442.835938 416.667969 442.339844 417.832031 L 441.792969 417.832031 C 441.792969 417.832031 441.257812 417.832031 441.894531 418.269531 C 442.527344 418.707031 446.960938 418.671875 448.359375 418.609375 C 449.503906 416.042969 449.703125 409.699219 449.8125 408.410156 C 449.921875 407.121094 450.191406 400.15625 450.28125 397.675781 Z M 450.28125 397.675781 " fill-opacity="1" fill-rule="nonzero"/><path fill="#dfe3ff" d="M 451.691406 398.921875 C 451.417969 398.28125 450.949219 397.867188 450.28125 397.675781 C 450.191406 400.15625 449.921875 407.207031 449.8125 408.453125 C 449.703125 409.699219 449.503906 416.097656 448.359375 418.652344 L 448.730469 418.652344 C 449.242188 418.554688 450.914062 418.398438 450.980469 415.855469 C 451.046875 413.3125 452.039062 400.375 451.691406 398.921875 Z M 451.691406 398.921875 " fill-opacity="1" fill-rule="nonzero"/><path fill="#dfe3ff" d="M 445.484375 407.40625 C 445.394531 407.398438 445.320312 407.363281 445.257812 407.296875 C 445.015625 407.050781 444.730469 406.878906 444.398438 406.78125 C 444.070312 406.683594 443.734375 406.671875 443.398438 406.75 C 443.320312 406.761719 443.246094 406.746094 443.175781 406.699219 C 443.109375 406.652344 443.066406 406.589844 443.050781 406.507812 C 443.027344 406.320312 443.105469 406.203125 443.289062 406.160156 C 443.734375 406.0625 444.171875 406.082031 444.605469 406.21875 C 445.042969 406.351562 445.414062 406.582031 445.726562 406.914062 C 445.785156 406.972656 445.8125 407.039062 445.8125 407.121094 C 445.8125 407.203125 445.785156 407.269531 445.726562 407.328125 C 445.660156 407.398438 445.582031 407.421875 445.484375 407.40625 Z M 445.484375 407.40625 " fill-opacity="1" fill-rule="nonzero"/><path fill="#dfe3ff" d="M 446.230469 405.691406 C 446.136719 405.6875 446.058594 405.652344 446 405.582031 C 445.757812 405.335938 445.46875 405.164062 445.136719 405.066406 C 444.804688 404.96875 444.46875 404.957031 444.132812 405.035156 C 444.050781 405.050781 443.976562 405.03125 443.90625 404.984375 C 443.839844 404.9375 443.800781 404.871094 443.785156 404.789062 C 443.773438 404.707031 443.789062 404.632812 443.839844 404.566406 C 443.886719 404.5 443.953125 404.460938 444.035156 404.445312 C 444.476562 404.351562 444.914062 404.371094 445.34375 404.503906 C 445.777344 404.636719 446.148438 404.871094 446.457031 405.199219 C 446.515625 405.257812 446.542969 405.324219 446.542969 405.40625 C 446.542969 405.488281 446.515625 405.558594 446.457031 405.613281 C 446.394531 405.683594 446.320312 405.707031 446.230469 405.691406 Z M 446.230469 405.691406 " fill-opacity="1" fill-rule="nonzero"/><path fill="#fb865d" d="M 435.65625 386.855469 L 441.574219 382.347656 C 441.574219 382.347656 443.761719 382.140625 444.785156 383.503906 C 445.441406 384.578125 445.777344 385.742188 445.804688 386.996094 L 441.203125 391.136719 Z M 435.65625 386.855469 " fill-opacity="1" fill-rule="nonzero"/><path fill="#0e133f" d="M 439.675781 366.351562 C 438.355469 366.710938 437.011719 367.804688 437.4375 369.125 C 438.976562 373.929688 440.222656 382.074219 440.449219 382.464844 C 440.679688 382.859375 440.867188 382.871094 440.867188 382.871094 L 441.214844 382.609375 C 441.214844 382.609375 443.398438 382.707031 444.144531 383.699219 C 444.78125 384.789062 445.253906 385.949219 445.5625 387.171875 L 445.160156 387.542969 C 445.160156 387.542969 444.753906 387.882812 445.507812 387.816406 C 446.261719 387.75 449.777344 385.078125 450.847656 384.179688 C 450.203125 381.441406 446.480469 376.277344 445.824219 375.171875 C 445.167969 374.070312 441.117188 368.382812 439.675781 366.351562 Z M 439.675781 366.351562 " fill-opacity="1" fill-rule="nonzero"/><path fill="#dfe3ff" d="M 441.542969 366.492188 C 440.941406 366.148438 440.320312 366.101562 439.675781 366.351562 C 441.105469 368.382812 445.136719 374.15625 445.824219 375.207031 C 446.511719 376.253906 450.195312 381.472656 450.847656 384.214844 L 451.132812 383.953125 C 451.472656 383.570312 452.671875 382.464844 451.21875 380.371094 C 449.765625 378.273438 442.722656 367.421875 441.542969 366.492188 Z M 441.542969 366.492188 " fill-opacity="1" fill-rule="nonzero"/><path fill="#dfe3ff" d="M 441.738281 377.007812 C 441.664062 377.0625 441.582031 377.082031 441.488281 377.0625 C 441.148438 377.011719 440.816406 377.046875 440.492188 377.167969 C 440.167969 377.289062 439.898438 377.484375 439.675781 377.75 C 439.617188 377.808594 439.546875 377.835938 439.460938 377.835938 C 439.378906 377.835938 439.308594 377.808594 439.25 377.75 C 439.1875 377.691406 439.160156 377.621094 439.160156 377.535156 C 439.160156 377.453125 439.1875 377.382812 439.25 377.324219 C 439.542969 376.980469 439.902344 376.730469 440.324219 376.574219 C 440.75 376.421875 441.183594 376.378906 441.628906 376.449219 C 441.816406 376.5 441.894531 376.621094 441.859375 376.8125 C 441.839844 376.886719 441.800781 376.953125 441.738281 377.007812 Z M 441.738281 377.007812 " fill-opacity="1" fill-rule="nonzero"/><path fill="#dfe3ff" d="M 441.292969 375.183594 C 441.222656 375.242188 441.140625 375.261719 441.050781 375.238281 C 440.710938 375.191406 440.378906 375.226562 440.058594 375.347656 C 439.734375 375.472656 439.460938 375.664062 439.238281 375.925781 C 439.183594 375.988281 439.113281 376.019531 439.03125 376.023438 C 438.949219 376.023438 438.878906 376 438.816406 375.941406 C 438.757812 375.886719 438.726562 375.816406 438.722656 375.734375 C 438.71875 375.652344 438.746094 375.582031 438.800781 375.523438 C 439.09375 375.179688 439.453125 374.929688 439.878906 374.777344 C 440.304688 374.625 440.738281 374.585938 441.183594 374.660156 C 441.261719 374.675781 441.324219 374.71875 441.371094 374.785156 C 441.414062 374.855469 441.429688 374.929688 441.414062 375.007812 C 441.390625 375.082031 441.351562 375.140625 441.292969 375.183594 Z M 441.292969 375.183594 " fill-opacity="1" fill-rule="nonzero"/><path fill="#6570fd" d="M 434.902344 386.070312 C 434.460938 386.335938 434.066406 386.65625 433.710938 387.03125 C 433.304688 387.410156 433.027344 387.867188 432.882812 388.40625 C 432.828125 388.59375 432.828125 388.777344 432.882812 388.964844 C 432.9375 389.121094 433.023438 389.261719 433.144531 389.378906 C 434.394531 390.632812 435.734375 391.789062 437.164062 392.839844 C 437.886719 393.617188 438.75 394.175781 439.753906 394.519531 C 439.9375 394.558594 440.125 394.558594 440.308594 394.519531 C 440.621094 394.402344 440.875 394.207031 441.0625 393.929688 L 442.296875 392.480469 C 442.519531 392.257812 442.667969 391.992188 442.734375 391.683594 C 442.75 391.425781 442.695312 391.183594 442.570312 390.960938 C 442.335938 390.527344 442.054688 390.128906 441.71875 389.769531 C 440.695312 388.789062 439.601562 387.890625 438.441406 387.074219 C 438.058594 386.761719 437.660156 386.472656 437.238281 386.210938 L 436.933594 386.015625 C 436.851562 385.960938 436.777344 385.898438 436.703125 385.828125 C 436.453125 385.699219 436.1875 385.660156 435.90625 385.710938 C 435.617188 385.757812 435.339844 385.855469 435.078125 385.992188 Z M 434.902344 386.070312 " fill-opacity="1" fill-rule="nonzero"/><path fill="#6570fd" d="M 436.082031 412.515625 C 436.082031 412.515625 435.425781 410.625 434.355469 410.691406 C 433.285156 410.757812 432.871094 411.050781 432.46875 411.03125 C 432.324219 411.03125 432.183594 411.058594 432.050781 411.113281 C 431.914062 411.167969 431.796875 411.246094 431.695312 411.351562 C 431.59375 411.453125 431.515625 411.570312 431.457031 411.703125 C 431.402344 411.835938 431.375 411.976562 431.375 412.121094 C 431.441406 412.90625 432.390625 420.648438 433.558594 420.964844 C 434.726562 421.28125 435.054688 420.605469 435.667969 420.5625 C 436.277344 420.519531 437.851562 420.113281 437.960938 418.988281 C 437.449219 416.796875 436.820312 414.640625 436.082031 412.515625 Z M 436.082031 412.515625 " fill-opacity="1" fill-rule="nonzero"/><path fill="#0e133f" d="M 352.007812 436.667969 C 352.300781 436.722656 352.539062 436.832031 352.722656 436.992188 C 352.90625 437.152344 352.984375 437.316406 352.949219 437.484375 C 352.917969 437.65625 352.785156 437.777344 352.554688 437.855469 C 352.324219 437.933594 352.0625 437.945312 351.769531 437.886719 C 351.476562 437.828125 351.238281 437.722656 351.054688 437.5625 C 350.871094 437.402344 350.792969 437.234375 350.828125 437.066406 C 350.859375 436.898438 350.992188 436.777344 351.222656 436.695312 C 351.453125 436.617188 351.714844 436.609375 352.007812 436.667969 Z M 352.007812 436.667969 " fill-opacity="1" fill-rule="nonzero"/><path fill="#0e133f" d="M 221.03125 382.359375 L 218.5 378.601562 C 218.007812 377.878906 217.394531 377.289062 216.65625 376.824219 C 215.914062 376.363281 215.113281 376.070312 214.25 375.949219 L 207.914062 375.0625 L 206.300781 372.628906 C 206.152344 372.414062 205.949219 372.277344 205.691406 372.226562 C 205.433594 372.175781 205.195312 372.222656 204.976562 372.367188 L 202.792969 373.851562 C 202.578125 373.996094 202.445312 374.199219 202.394531 374.453125 C 202.339844 374.707031 202.386719 374.945312 202.53125 375.160156 L 204.113281 377.574219 L 202.390625 383.886719 C 202.148438 384.75 202.101562 385.621094 202.246094 386.503906 C 202.390625 387.390625 202.714844 388.199219 203.21875 388.941406 L 205.710938 392.632812 Z M 221.03125 382.359375 " fill-opacity="1" fill-rule="nonzero"/><path fill="#524fd0" d="M 207.097656 395.382812 C 209.355469 395.308594 212.785156 393.964844 216.195312 391.671875 C 219.601562 389.378906 222.136719 386.691406 223.054688 384.628906 L 224.265625 383.808594 L 223.171875 382.160156 C 221.9375 380.328125 216.816406 381.625 211.738281 385.042969 C 206.660156 388.460938 203.546875 392.6875 204.78125 394.554688 L 205.871094 396.203125 Z M 207.097656 395.382812 " fill-opacity="1" fill-rule="nonzero"/><path fill="#b583fd" d="M 224.273438 383.789062 C 224.421875 384.007812 224.507812 384.261719 224.535156 384.554688 C 224.558594 384.847656 224.523438 385.175781 224.429688 385.53125 C 224.332031 385.886719 224.179688 386.269531 223.964844 386.675781 C 223.75 387.082031 223.484375 387.507812 223.160156 387.949219 C 222.835938 388.390625 222.464844 388.84375 222.042969 389.300781 C 221.621094 389.761719 221.160156 390.222656 220.660156 390.679688 C 220.15625 391.140625 219.625 391.589844 219.0625 392.03125 C 218.496094 392.472656 217.914062 392.898438 217.308594 393.304688 C 216.703125 393.714844 216.09375 394.09375 215.472656 394.453125 C 214.851562 394.808594 214.230469 395.132812 213.617188 395.425781 C 213.003906 395.71875 212.40625 395.976562 211.820312 396.191406 C 211.238281 396.410156 210.679688 396.585938 210.148438 396.71875 C 209.617188 396.855469 209.125 396.945312 208.664062 396.988281 C 208.207031 397.035156 207.796875 397.035156 207.429688 396.988281 C 207.0625 396.945312 206.746094 396.855469 206.484375 396.722656 C 206.222656 396.585938 206.019531 396.410156 205.875 396.195312 C 205.726562 395.976562 205.640625 395.722656 205.613281 395.429688 C 205.589844 395.136719 205.621094 394.8125 205.71875 394.453125 C 205.8125 394.097656 205.96875 393.714844 206.183594 393.308594 C 206.394531 392.902344 206.664062 392.476562 206.988281 392.035156 C 207.3125 391.59375 207.683594 391.140625 208.105469 390.683594 C 208.523438 390.222656 208.988281 389.765625 209.488281 389.304688 C 209.992188 388.84375 210.523438 388.394531 211.085938 387.953125 C 211.652344 387.511719 212.234375 387.085938 212.839844 386.679688 C 213.445312 386.273438 214.054688 385.890625 214.675781 385.53125 C 215.296875 385.175781 215.914062 384.851562 216.53125 384.558594 C 217.144531 384.265625 217.742188 384.007812 218.328125 383.792969 C 218.910156 383.574219 219.46875 383.398438 220 383.265625 C 220.53125 383.128906 221.023438 383.039062 221.480469 382.996094 C 221.941406 382.949219 222.351562 382.949219 222.71875 382.996094 C 223.085938 383.039062 223.398438 383.128906 223.660156 383.261719 C 223.921875 383.398438 224.128906 383.574219 224.273438 383.789062 Z M 224.273438 383.789062 " fill-opacity="1" fill-rule="nonzero"/><path fill="#0e133f" d="M 213.003906 391.429688 C 213.054688 391.511719 213.074219 391.613281 213.058594 391.730469 C 213.042969 391.851562 212.988281 391.980469 212.902344 392.121094 C 212.820312 392.261719 212.707031 392.402344 212.5625 392.542969 C 212.421875 392.683594 212.265625 392.8125 212.089844 392.929688 C 211.914062 393.046875 211.734375 393.144531 211.550781 393.222656 C 211.371094 393.300781 211.195312 393.355469 211.035156 393.382812 C 210.871094 393.410156 210.730469 393.40625 210.613281 393.378906 C 210.496094 393.347656 210.414062 393.292969 210.359375 393.214844 C 210.304688 393.132812 210.285156 393.035156 210.300781 392.914062 C 210.320312 392.792969 210.371094 392.664062 210.457031 392.523438 C 210.542969 392.382812 210.65625 392.242188 210.796875 392.101562 C 210.9375 391.964844 211.09375 391.835938 211.269531 391.714844 C 211.445312 391.597656 211.625 391.5 211.808594 391.421875 C 211.992188 391.34375 212.164062 391.289062 212.324219 391.261719 C 212.488281 391.238281 212.628906 391.238281 212.746094 391.265625 C 212.863281 391.296875 212.949219 391.351562 213.003906 391.429688 Z M 213.003906 391.429688 " fill-opacity="1" fill-rule="nonzero"/><path fill="#0e133f" d="M 219.828125 386.828125 C 219.878906 386.910156 219.898438 387.011719 219.882812 387.128906 C 219.863281 387.25 219.8125 387.378906 219.726562 387.519531 C 219.644531 387.660156 219.527344 387.800781 219.386719 387.941406 C 219.246094 388.082031 219.089844 388.210938 218.914062 388.328125 C 218.738281 388.445312 218.558594 388.542969 218.375 388.621094 C 218.191406 388.699219 218.019531 388.753906 217.859375 388.78125 C 217.695312 388.808594 217.554688 388.804688 217.4375 388.777344 C 217.320312 388.746094 217.234375 388.691406 217.183594 388.613281 C 217.128906 388.53125 217.109375 388.433594 217.125 388.3125 C 217.144531 388.191406 217.195312 388.0625 217.28125 387.921875 C 217.367188 387.78125 217.480469 387.640625 217.621094 387.5 C 217.761719 387.363281 217.917969 387.234375 218.09375 387.113281 C 218.269531 386.996094 218.449219 386.898438 218.632812 386.820312 C 218.816406 386.742188 218.988281 386.6875 219.148438 386.660156 C 219.3125 386.636719 219.453125 386.636719 219.570312 386.664062 C 219.6875 386.695312 219.773438 386.75 219.828125 386.828125 Z M 219.828125 386.828125 " fill-opacity="1" fill-rule="nonzero"/><path fill="#0e133f" d="M 351.351562 399.683594 L 354.320312 403.101562 C 354.894531 403.761719 355.578125 404.273438 356.367188 404.640625 C 357.160156 405.007812 357.992188 405.199219 358.867188 405.210938 L 365.253906 405.320312 L 367.1875 407.503906 C 367.363281 407.699219 367.582031 407.804688 367.839844 407.820312 C 368.101562 407.839844 368.332031 407.761719 368.53125 407.589844 L 370.519531 405.855469 C 370.714844 405.683594 370.824219 405.46875 370.839844 405.207031 C 370.859375 404.945312 370.78125 404.71875 370.605469 404.523438 L 368.671875 402.339844 L 369.613281 395.863281 C 369.742188 394.976562 369.679688 394.105469 369.425781 393.246094 C 369.171875 392.390625 368.75 391.625 368.160156 390.949219 L 365.242188 387.585938 Z M 351.351562 399.683594 " fill-opacity="1" fill-rule="nonzero"/><path fill="#524fd0" d="M 363.574219 385.054688 C 361.332031 385.402344 358.113281 387.152344 355 389.859375 C 351.886719 392.566406 349.722656 395.523438 349.070312 397.6875 L 347.976562 398.660156 L 349.277344 400.15625 C 350.730469 401.816406 355.644531 399.902344 360.261719 395.875 C 364.882812 391.847656 367.460938 387.25 366.007812 385.578125 L 364.664062 384.125 Z M 363.574219 385.054688 " fill-opacity="1" fill-rule="nonzero"/><path fill="#b583fd" d="M 364.683594 384.089844 C 364.855469 384.285156 364.972656 384.527344 365.035156 384.816406 C 365.097656 385.105469 365.101562 385.429688 365.050781 385.796875 C 365 386.164062 364.894531 386.5625 364.730469 386.992188 C 364.570312 387.421875 364.355469 387.875 364.089844 388.355469 C 363.820312 388.832031 363.507812 389.324219 363.148438 389.832031 C 362.785156 390.339844 362.382812 390.851562 361.941406 391.371094 C 361.5 391.886719 361.027344 392.402344 360.523438 392.910156 C 360.019531 393.417969 359.492188 393.910156 358.941406 394.390625 C 358.390625 394.867188 357.832031 395.320312 357.257812 395.753906 C 356.6875 396.183594 356.113281 396.582031 355.539062 396.949219 C 354.964844 397.3125 354.402344 397.640625 353.851562 397.929688 C 353.296875 398.21875 352.765625 398.460938 352.253906 398.660156 C 351.746094 398.855469 351.265625 399.007812 350.816406 399.109375 C 350.367188 399.210938 349.960938 399.261719 349.589844 399.261719 C 349.21875 399.261719 348.898438 399.210938 348.621094 399.109375 C 348.34375 399.007812 348.121094 398.859375 347.949219 398.664062 C 347.777344 398.464844 347.660156 398.222656 347.597656 397.933594 C 347.535156 397.648438 347.53125 397.320312 347.582031 396.953125 C 347.632812 396.589844 347.738281 396.191406 347.898438 395.761719 C 348.0625 395.328125 348.277344 394.875 348.542969 394.398438 C 348.808594 393.917969 349.121094 393.425781 349.484375 392.917969 C 349.84375 392.410156 350.246094 391.898438 350.6875 391.378906 C 351.128906 390.863281 351.601562 390.347656 352.109375 389.839844 C 352.613281 389.332031 353.140625 388.839844 353.691406 388.363281 C 354.238281 387.882812 354.800781 387.429688 355.371094 387 C 355.945312 386.566406 356.519531 386.167969 357.089844 385.804688 C 357.664062 385.4375 358.226562 385.109375 358.78125 384.820312 C 359.332031 384.535156 359.863281 384.289062 360.375 384.09375 C 360.886719 383.894531 361.363281 383.742188 361.8125 383.644531 C 362.261719 383.542969 362.671875 383.492188 363.039062 383.492188 C 363.410156 383.488281 363.734375 383.539062 364.007812 383.640625 C 364.285156 383.742188 364.511719 383.890625 364.683594 384.089844 Z M 364.683594 384.089844 " fill-opacity="1" fill-rule="nonzero"/><path fill="#0e133f" d="M 360.417969 387.742188 L 356.191406 383.035156 C 356.0625 382.878906 355.914062 382.753906 355.734375 382.664062 C 355.558594 382.570312 355.371094 382.515625 355.171875 382.5 C 354.972656 382.484375 354.777344 382.507812 354.589844 382.570312 C 354.398438 382.632812 354.230469 382.730469 354.082031 382.863281 C 353.933594 382.996094 353.816406 383.15625 353.730469 383.335938 C 353.644531 383.515625 353.597656 383.707031 353.59375 383.90625 C 353.585938 384.105469 353.617188 384.296875 353.6875 384.484375 C 353.761719 384.671875 353.867188 384.835938 354.003906 384.976562 L 358.222656 389.660156 C 358.492188 389.933594 359.183594 389.761719 359.773438 389.234375 C 360.363281 388.710938 360.65625 388.035156 360.394531 387.742188 Z M 360.417969 387.742188 " fill-opacity="1" fill-rule="nonzero"/><path fill="#0e133f" d="M 354.398438 393.144531 L 350.171875 388.4375 C 350.046875 388.285156 349.894531 388.160156 349.71875 388.066406 C 349.539062 387.976562 349.351562 387.921875 349.152344 387.902344 C 348.953125 387.886719 348.761719 387.910156 348.570312 387.976562 C 348.382812 388.039062 348.210938 388.136719 348.0625 388.269531 C 347.914062 388.402344 347.796875 388.558594 347.710938 388.738281 C 347.628906 388.921875 347.582031 389.109375 347.574219 389.308594 C 347.566406 389.507812 347.597656 389.703125 347.671875 389.886719 C 347.742188 390.074219 347.847656 390.238281 347.988281 390.382812 L 352.214844 395.046875 C 352.496094 395.316406 353.175781 395.144531 353.777344 394.617188 C 354.375 394.09375 354.660156 393.429688 354.398438 393.125 Z M 354.398438 393.144531 " fill-opacity="1" fill-rule="nonzero"/><path fill="#ff6e48" d="M 354.933594 439.058594 C 354.933594 439.222656 354.902344 439.382812 354.839844 439.535156 C 354.777344 439.6875 354.6875 439.820312 354.570312 439.9375 C 354.453125 440.054688 354.316406 440.144531 354.164062 440.207031 C 354.011719 440.269531 353.855469 440.304688 353.6875 440.304688 C 353.523438 440.304688 353.363281 440.269531 353.210938 440.207031 C 353.058594 440.144531 352.925781 440.054688 352.808594 439.9375 C 352.691406 439.820312 352.601562 439.6875 352.539062 439.535156 C 352.476562 439.382812 352.445312 439.222656 352.445312 439.058594 C 352.445312 438.894531 352.476562 438.734375 352.539062 438.582031 C 352.601562 438.429688 352.691406 438.292969 352.808594 438.179688 C 352.925781 438.0625 353.058594 437.972656 353.210938 437.90625 C 353.363281 437.84375 353.523438 437.8125 353.6875 437.8125 C 353.855469 437.8125 354.011719 437.84375 354.164062 437.90625 C 354.316406 437.972656 354.453125 438.0625 354.570312 438.179688 C 354.6875 438.292969 354.777344 438.429688 354.839844 438.582031 C 354.902344 438.734375 354.933594 438.894531 354.933594 439.058594 Z M 354.933594 439.058594 " fill-opacity="1" fill-rule="nonzero"/><path fill="#f2700d" d="M 379.082031 450 C 379.042969 450.011719 379 450.011719 378.960938 450 C 377.414062 449.453125 375.820312 449.144531 374.175781 449.082031 C 371.710938 448.949219 369.25 449.007812 366.792969 449.265625 C 366.710938 449.28125 366.636719 449.261719 366.570312 449.207031 C 366.503906 449.15625 366.464844 449.089844 366.457031 449.003906 C 366.449219 448.925781 366.472656 448.851562 366.523438 448.789062 C 366.574219 448.726562 366.636719 448.6875 366.71875 448.675781 C 369.214844 448.410156 371.714844 448.347656 374.222656 448.492188 C 375.9375 448.539062 377.601562 448.863281 379.210938 449.464844 C 379.285156 449.5 379.335938 449.554688 379.367188 449.628906 C 379.394531 449.707031 379.390625 449.78125 379.355469 449.855469 C 379.292969 449.960938 379.203125 450.007812 379.082031 450 Z M 379.082031 450 " fill-opacity="1" fill-rule="nonzero"/><path fill="#f2700d" d="M 353.546875 455.992188 C 353.464844 455.992188 353.394531 455.964844 353.339844 455.90625 C 353.28125 455.847656 353.253906 455.777344 353.253906 455.691406 C 353.253906 455.609375 353.28125 455.539062 353.339844 455.480469 C 354.585938 454.238281 356.074219 453.453125 357.804688 453.121094 C 359.152344 452.867188 360.453125 453.019531 361.703125 453.578125 C 361.773438 453.621094 361.820312 453.679688 361.839844 453.757812 C 361.863281 453.835938 361.851562 453.914062 361.8125 453.984375 C 361.773438 454.054688 361.710938 454.097656 361.632812 454.121094 C 361.554688 454.140625 361.480469 454.132812 361.410156 454.09375 C 360.273438 453.617188 359.097656 453.492188 357.882812 453.710938 C 356.292969 454.023438 354.921875 454.75 353.777344 455.894531 C 353.714844 455.960938 353.636719 455.996094 353.546875 455.992188 Z M 353.546875 455.992188 " fill-opacity="1" fill-rule="nonzero"/><path fill="#f2700d" d="M 360.425781 469.859375 C 360.355469 469.859375 360.289062 469.835938 360.230469 469.792969 C 360.171875 469.734375 360.144531 469.664062 360.144531 469.582031 C 360.144531 469.5 360.171875 469.425781 360.230469 469.367188 C 361.585938 467.722656 362.820312 465.992188 363.933594 464.171875 C 364.445312 463.019531 364.691406 461.816406 364.664062 460.558594 C 364.660156 460.472656 364.6875 460.402344 364.742188 460.339844 C 364.796875 460.28125 364.867188 460.246094 364.949219 460.242188 C 365.027344 460.238281 365.097656 460.265625 365.15625 460.320312 C 365.214844 460.375 365.25 460.445312 365.253906 460.523438 C 365.296875 461.890625 365.03125 463.191406 364.457031 464.433594 C 363.332031 466.300781 362.070312 468.074219 360.679688 469.75 C 360.617188 469.835938 360.53125 469.871094 360.425781 469.859375 Z M 360.425781 469.859375 " fill-opacity="1" fill-rule="nonzero"/><path fill="#f2700d" d="M 362.785156 466.757812 C 362.628906 466.75 362.535156 466.667969 362.503906 466.515625 C 362.472656 466.363281 362.527344 466.25 362.667969 466.179688 C 364.488281 465.371094 365.769531 462.675781 365.777344 462.640625 C 365.816406 462.570312 365.871094 462.519531 365.949219 462.492188 C 366.023438 462.464844 366.097656 462.46875 366.171875 462.5 C 366.25 462.53125 366.300781 462.585938 366.332031 462.664062 C 366.359375 462.742188 366.359375 462.816406 366.324219 462.894531 C 366.269531 463.015625 364.949219 465.832031 362.917969 466.738281 Z M 362.785156 466.757812 " fill-opacity="1" fill-rule="nonzero"/><path fill="#f2700d" d="M 397.59375 471.847656 C 397.511719 471.847656 397.445312 471.816406 397.386719 471.757812 C 391.925781 466.203125 393.019531 456.082031 393.082031 455.65625 C 393.089844 455.570312 393.125 455.503906 393.1875 455.453125 C 393.253906 455.398438 393.328125 455.378906 393.410156 455.390625 C 393.492188 455.402344 393.558594 455.4375 393.609375 455.5 C 393.660156 455.566406 393.683594 455.636719 393.671875 455.71875 C 393.671875 455.828125 392.582031 465.984375 397.8125 471.332031 C 397.941406 471.476562 397.941406 471.617188 397.8125 471.757812 C 397.753906 471.820312 397.679688 471.847656 397.59375 471.847656 Z M 397.59375 471.847656 " fill-opacity="1" fill-rule="nonzero"/><path fill="#f2700d" d="M 402.355469 477.371094 C 392.046875 476.761719 389.980469 460.730469 389.96875 460.578125 C 389.957031 460.496094 389.976562 460.421875 390.023438 460.355469 C 390.074219 460.289062 390.140625 460.25 390.222656 460.242188 C 390.304688 460.230469 390.378906 460.25 390.445312 460.300781 C 390.511719 460.351562 390.550781 460.421875 390.558594 460.503906 C 390.558594 460.65625 392.582031 476.191406 402.390625 476.769531 C 402.472656 476.777344 402.539062 476.8125 402.59375 476.871094 C 402.648438 476.933594 402.675781 477.003906 402.671875 477.085938 C 402.667969 477.171875 402.632812 477.238281 402.570312 477.292969 C 402.511719 477.347656 402.4375 477.375 402.355469 477.371094 Z M 402.355469 477.371094 " fill-opacity="1" fill-rule="nonzero"/><path fill="#6570fd" d="M 396.339844 453.632812 C 396.257812 453.636719 396.191406 453.613281 396.132812 453.558594 C 396.078125 453.507812 396.046875 453.441406 396.042969 453.363281 C 395.421875 446.917969 398.589844 415.441406 398.71875 414.054688 C 398.726562 413.96875 398.765625 413.902344 398.832031 413.851562 C 398.898438 413.796875 398.972656 413.78125 399.058594 413.792969 C 399.140625 413.796875 399.207031 413.832031 399.261719 413.898438 C 399.3125 413.964844 399.332031 414.039062 399.320312 414.121094 C 399.320312 414.449219 396.042969 446.875 396.632812 453.261719 C 396.640625 453.347656 396.621094 453.421875 396.566406 453.484375 C 396.511719 453.550781 396.445312 453.585938 396.359375 453.589844 Z M 396.339844 453.632812 " fill-opacity="1" fill-rule="nonzero"/><path fill="#6570fd" d="M 412.523438 424.523438 C 412.339844 424.527344 412.242188 424.433594 412.230469 424.253906 C 412.230469 424.046875 411.804688 419.140625 412.402344 417.089844 C 413.003906 415.035156 416.0625 412.820312 416.195312 412.722656 C 416.261719 412.675781 416.335938 412.664062 416.417969 412.675781 C 416.496094 412.691406 416.5625 412.734375 416.609375 412.796875 C 416.65625 412.863281 416.675781 412.9375 416.664062 413.019531 C 416.648438 413.101562 416.609375 413.164062 416.542969 413.214844 C 416.542969 413.214844 413.519531 415.398438 412.972656 417.253906 C 412.425781 419.109375 412.820312 424.152344 412.820312 424.207031 C 412.828125 424.292969 412.804688 424.363281 412.753906 424.425781 C 412.699219 424.488281 412.628906 424.523438 412.546875 424.523438 Z M 412.523438 424.523438 " fill-opacity="1" fill-rule="nonzero"/><path fill="#6570fd" d="M 398.214844 422.339844 C 395.847656 422.339844 393.617188 420.222656 393.53125 420.15625 C 393.46875 420.101562 393.441406 420.027344 393.441406 419.945312 C 393.441406 419.859375 393.46875 419.789062 393.53125 419.730469 C 393.589844 419.675781 393.660156 419.644531 393.742188 419.644531 C 393.828125 419.644531 393.898438 419.675781 393.957031 419.730469 C 393.957031 419.730469 396.140625 421.773438 398.226562 421.773438 C 398.308594 421.773438 398.378906 421.800781 398.441406 421.859375 C 398.5 421.917969 398.53125 421.988281 398.535156 422.070312 C 398.523438 422.148438 398.488281 422.214844 398.429688 422.269531 C 398.367188 422.320312 398.296875 422.34375 398.214844 422.339844 Z M 398.214844 422.339844 " fill-opacity="1" fill-rule="nonzero"/><path fill="#6570fd" d="M 411.070312 470.679688 C 410.925781 470.6875 410.824219 470.621094 410.777344 470.480469 C 410.730469 470.339844 410.765625 470.230469 410.886719 470.144531 C 413.78125 467.894531 412.9375 457.847656 412.929688 457.75 C 412.921875 457.667969 412.945312 457.59375 413 457.53125 C 413.050781 457.46875 413.117188 457.433594 413.203125 457.421875 C 413.285156 457.414062 413.355469 457.4375 413.417969 457.492188 C 413.484375 457.542969 413.515625 457.613281 413.519531 457.695312 C 413.519531 458.121094 414.402344 468.167969 411.257812 470.613281 C 411.203125 470.65625 411.140625 470.679688 411.070312 470.679688 Z M 411.070312 470.679688 " fill-opacity="1" fill-rule="nonzero"/><path fill="#eb5f3a" d="M 348.675781 445.742188 C 348.144531 445.71875 347.691406 445.519531 347.320312 445.140625 C 347.152344 444.988281 347.046875 444.796875 347.003906 444.574219 C 346.964844 444.347656 346.996094 444.132812 347.101562 443.933594 C 347.207031 443.730469 347.363281 443.578125 347.570312 443.484375 C 347.777344 443.386719 347.992188 443.363281 348.214844 443.414062 C 348.300781 443.429688 348.363281 443.46875 348.414062 443.539062 C 348.464844 443.605469 348.480469 443.679688 348.46875 443.765625 C 348.457031 443.847656 348.417969 443.910156 348.351562 443.960938 C 348.285156 444.011719 348.210938 444.027344 348.128906 444.015625 C 348.011719 443.988281 347.902344 444.003906 347.796875 444.066406 C 347.695312 444.128906 347.625 444.214844 347.59375 444.332031 C 347.574219 444.492188 347.628906 444.625 347.757812 444.726562 C 348.03125 445.007812 348.367188 445.148438 348.761719 445.140625 C 348.84375 445.125 348.914062 445.144531 348.980469 445.191406 C 349.046875 445.238281 349.085938 445.300781 349.101562 445.378906 C 349.113281 445.460938 349.09375 445.535156 349.042969 445.605469 C 348.996094 445.671875 348.929688 445.714844 348.851562 445.730469 Z M 348.675781 445.742188 " fill-opacity="1" fill-rule="nonzero"/><path fill="#eb5f3a" d="M 350.835938 446.777344 C 350.757812 446.769531 350.691406 446.734375 350.636719 446.667969 C 350.585938 446.605469 350.566406 446.53125 350.574219 446.449219 C 350.601562 446.273438 350.703125 446.179688 350.882812 446.175781 C 350.882812 446.175781 351.15625 446.175781 351.417969 445.652344 C 351.453125 445.578125 351.511719 445.527344 351.589844 445.5 C 351.671875 445.476562 351.746094 445.484375 351.820312 445.523438 C 351.890625 445.5625 351.9375 445.621094 351.960938 445.699219 C 351.984375 445.777344 351.976562 445.851562 351.941406 445.925781 C 351.480469 446.710938 350.980469 446.777344 350.835938 446.777344 Z M 350.835938 446.777344 " fill-opacity="1" fill-rule="nonzero"/><path fill="#eb5f3a" d="M 354.082031 446.089844 L 353.996094 446.089844 C 353.898438 446.109375 353.816406 446.085938 353.742188 446.023438 C 353.667969 445.964844 353.632812 445.886719 353.632812 445.789062 C 353.632812 445.695312 353.667969 445.613281 353.742188 445.554688 C 353.816406 445.492188 353.898438 445.472656 353.996094 445.488281 L 354.058594 445.488281 C 355.089844 445.492188 356.113281 445.410156 357.128906 445.238281 C 357.210938 445.222656 357.285156 445.238281 357.355469 445.285156 C 357.421875 445.332031 357.464844 445.394531 357.476562 445.476562 C 357.492188 445.558594 357.476562 445.632812 357.429688 445.703125 C 357.382812 445.769531 357.320312 445.8125 357.238281 445.828125 C 356.191406 446.003906 355.140625 446.089844 354.082031 446.089844 Z M 354.082031 446.089844 " fill-opacity="1" fill-rule="nonzero"/><path fill="#eb5f3a" d="M 358.386719 438.863281 C 358.523438 438.863281 358.617188 438.929688 358.667969 439.058594 C 358.691406 439.136719 358.683594 439.214844 358.644531 439.289062 C 358.609375 439.359375 358.550781 439.410156 358.472656 439.441406 C 357.828125 439.660156 357.859375 440.140625 357.871094 440.195312 C 357.886719 440.386719 357.800781 440.5 357.609375 440.53125 C 357.425781 440.542969 357.3125 440.460938 357.269531 440.28125 C 357.246094 439.953125 357.332031 439.660156 357.523438 439.390625 C 357.714844 439.125 357.96875 438.953125 358.285156 438.871094 Z M 358.386719 438.863281 " fill-opacity="1" fill-rule="nonzero"/><path fill="#f8653e" d="M 358.734375 440.640625 C 358.671875 440.636719 358.613281 440.621094 358.558594 440.585938 C 358.492188 440.539062 358.453125 440.472656 358.441406 440.394531 C 358.425781 440.3125 358.445312 440.238281 358.492188 440.171875 L 358.65625 439.941406 C 358.78125 439.820312 358.910156 439.808594 359.050781 439.910156 C 359.191406 440.007812 359.222656 440.136719 359.148438 440.292969 L 358.972656 440.519531 C 358.914062 440.601562 358.835938 440.640625 358.734375 440.640625 Z M 358.734375 440.640625 " fill-opacity="1" fill-rule="nonzero"/><path fill="#eb5f3a" d="M 363.257812 519.867188 C 363.171875 519.863281 363.101562 519.828125 363.046875 519.765625 C 362.988281 519.707031 362.960938 519.632812 362.960938 519.550781 C 362.863281 518.800781 362.683594 518.074219 362.414062 517.367188 C 362.382812 517.289062 362.382812 517.214844 362.417969 517.136719 C 362.453125 517.0625 362.511719 517.011719 362.589844 516.984375 C 362.667969 516.957031 362.746094 516.960938 362.820312 516.996094 C 362.894531 517.03125 362.945312 517.089844 362.972656 517.171875 C 363.265625 517.941406 363.464844 518.738281 363.5625 519.5625 C 363.5625 519.644531 363.53125 519.71875 363.472656 519.777344 C 363.414062 519.835938 363.339844 519.867188 363.257812 519.867188 Z M 363.257812 519.867188 " fill-opacity="1" fill-rule="nonzero"/><path fill="#eb5f3a" d="M 364.773438 516.089844 C 364.609375 516.09375 364.511719 516.011719 364.480469 515.847656 C 364.304688 514.953125 363.941406 514.140625 363.386719 513.414062 C 363.28125 513.277344 363.285156 513.148438 363.398438 513.019531 C 363.515625 512.890625 363.644531 512.875 363.792969 512.964844 C 364.421875 513.789062 364.828125 514.707031 365.003906 515.730469 C 365.023438 515.8125 365.011719 515.886719 364.964844 515.957031 C 364.921875 516.03125 364.855469 516.074219 364.773438 516.089844 Z M 364.773438 516.089844 " fill-opacity="1" fill-rule="nonzero"/><path fill="#eb5f3a" d="M 360.832031 520.425781 C 360.683594 520.421875 360.59375 520.351562 360.558594 520.207031 C 360.476562 519.617188 360.425781 519.027344 360.40625 518.4375 C 360.402344 518.355469 360.429688 518.28125 360.484375 518.222656 C 360.539062 518.160156 360.605469 518.125 360.6875 518.121094 C 360.878906 518.121094 360.984375 518.214844 361.007812 518.402344 C 361.007812 519.125 361.105469 519.933594 361.125 520.054688 C 361.148438 520.132812 361.136719 520.207031 361.09375 520.277344 C 361.050781 520.351562 360.988281 520.394531 360.90625 520.414062 Z M 360.832031 520.425781 " fill-opacity="1" fill-rule="nonzero"/><path fill="#eb5f3a" d="M 358.570312 519.628906 C 358.402344 519.625 358.304688 519.539062 358.277344 519.375 L 358.113281 518.21875 C 358.097656 518.136719 358.117188 518.0625 358.167969 517.996094 C 358.214844 517.929688 358.28125 517.890625 358.363281 517.878906 C 358.445312 517.867188 358.519531 517.886719 358.585938 517.933594 C 358.652344 517.984375 358.691406 518.050781 358.703125 518.132812 L 358.867188 519.289062 C 358.878906 519.371094 358.859375 519.445312 358.8125 519.511719 C 358.761719 519.578125 358.695312 519.617188 358.613281 519.628906 Z M 358.570312 519.628906 " fill-opacity="1" fill-rule="nonzero"/><path fill="#a9affc" d="M 441.628906 391.769531 C 441.582031 391.78125 441.535156 391.78125 441.488281 391.769531 C 440.792969 391.375 440.183594 390.882812 439.652344 390.285156 C 439.292969 389.890625 438.902344 389.527344 438.484375 389.191406 C 438.132812 388.957031 437.769531 388.738281 437.394531 388.539062 C 436.480469 388.144531 435.753906 387.535156 435.207031 386.703125 C 435.160156 386.542969 435.214844 386.421875 435.363281 386.34375 C 435.511719 386.269531 435.640625 386.296875 435.742188 386.429688 C 436.226562 387.144531 436.863281 387.675781 437.65625 388.023438 C 438.035156 388.230469 438.398438 388.460938 438.746094 388.710938 C 439.1875 389.042969 439.601562 389.40625 439.980469 389.804688 C 440.46875 390.351562 441.027344 390.804688 441.664062 391.167969 C 441.734375 391.207031 441.785156 391.265625 441.8125 391.34375 C 441.835938 391.421875 441.832031 391.5 441.792969 391.574219 C 441.773438 391.664062 441.71875 391.730469 441.628906 391.769531 Z M 441.628906 391.769531 " fill-opacity="1" fill-rule="nonzero"/><path fill="#a9affc" d="M 440.398438 393.550781 C 440.3125 393.550781 440.238281 393.519531 440.179688 393.460938 C 438.480469 391.585938 436.496094 390.089844 434.226562 388.972656 C 434.152344 388.9375 434.101562 388.882812 434.074219 388.804688 C 434.046875 388.726562 434.050781 388.648438 434.085938 388.574219 C 434.125 388.5 434.179688 388.449219 434.257812 388.425781 C 434.335938 388.398438 434.414062 388.402344 434.488281 388.4375 C 436.820312 389.589844 438.863281 391.125 440.613281 393.046875 C 440.671875 393.105469 440.703125 393.175781 440.703125 393.261719 C 440.703125 393.34375 440.671875 393.414062 440.613281 393.472656 C 440.554688 393.53125 440.480469 393.554688 440.398438 393.550781 Z M 440.398438 393.550781 " fill-opacity="1" fill-rule="nonzero"/><path fill="#a9affc" d="M 435.425781 419.832031 C 435.300781 419.835938 435.210938 419.78125 435.152344 419.667969 C 433.890625 417.289062 432.949219 414.792969 432.324219 412.175781 C 432.292969 411.988281 432.367188 411.867188 432.554688 411.816406 C 432.636719 411.800781 432.710938 411.8125 432.78125 411.855469 C 432.851562 411.902344 432.894531 411.964844 432.914062 412.046875 C 433.527344 414.609375 434.449219 417.054688 435.6875 419.382812 C 435.730469 419.457031 435.734375 419.535156 435.710938 419.617188 C 435.683594 419.699219 435.632812 419.757812 435.558594 419.796875 Z M 435.425781 419.832031 " fill-opacity="1" fill-rule="nonzero"/><path fill="#a9affc" d="M 436.75 418.902344 C 436.605469 418.898438 436.511719 418.832031 436.464844 418.695312 C 435.800781 416.757812 434.894531 414.9375 433.757812 413.234375 C 433.679688 413.074219 433.710938 412.945312 433.859375 412.847656 C 434.007812 412.75 434.140625 412.765625 434.257812 412.898438 C 435.425781 414.660156 436.351562 416.539062 437.03125 418.542969 C 437.058594 418.621094 437.054688 418.695312 437.015625 418.769531 C 436.980469 418.84375 436.925781 418.894531 436.847656 418.925781 Z M 436.75 418.902344 " fill-opacity="1" fill-rule="nonzero"/><path fill="#eb5f3a" d="M 371.753906 412.515625 L 371.699219 412.515625 C 371.617188 412.5 371.550781 412.460938 371.503906 412.390625 C 371.457031 412.324219 371.441406 412.246094 371.457031 412.164062 C 371.535156 411.761719 372.234375 408.257812 373.214844 407.460938 C 373.214844 407.460938 374.308594 406.816406 374.789062 406.476562 C 374.84375 406.417969 374.914062 406.386719 374.996094 406.386719 C 375.078125 406.386719 375.148438 406.417969 375.203125 406.476562 C 375.261719 406.535156 375.289062 406.605469 375.289062 406.691406 C 375.289062 406.773438 375.261719 406.84375 375.203125 406.902344 C 374.734375 407.273438 373.644531 407.886719 373.597656 407.917969 C 372.945312 408.441406 372.289062 411.195312 372.089844 412.285156 C 372.046875 412.464844 371.933594 412.539062 371.753906 412.515625 Z M 371.753906 412.515625 " fill-opacity="1" fill-rule="nonzero"/></svg>