<svg xmlns="http://www.w3.org/2000/svg" xmlns:xlink="http://www.w3.org/1999/xlink" width="300" zoomAndPan="magnify" viewBox="0 0 224.87999 149.999998" height="200" preserveAspectRatio="xMidYMid meet" version="1.0"><defs><g/><clipPath id="ee91377db7"><rect x="0" width="132" y="0" height="50"/></clipPath><clipPath id="fd7806830b"><path d="M 0.0351562 1.257812 L 68.40625 1.257812 L 68.40625 60.023438 L 0.0351562 60.023438 Z M 0.0351562 1.257812 " clip-rule="nonzero"/></clipPath><clipPath id="43bc18bbe1"><path d="M 0.0351562 3.71875 L 68.40625 3.71875 L 68.40625 62.488281 L 0.0351562 62.488281 Z M 0.0351562 3.71875 " clip-rule="nonzero"/></clipPath><clipPath id="3e7609a866"><rect x="0" width="69" y="0" height="63"/></clipPath></defs><g transform="matrix(1, 0, 0, 1, 84, 51)"><g clip-path="url(#ee91377db7)"><g fill="#ffffff" fill-opacity="1"><g transform="translate(0.756116, 35.042992)"><g><path d="M 24.390625 -21.6875 C 24.390625 -20.175781 24.164062 -18.742188 23.71875 -17.390625 C 23.28125 -16.035156 22.601562 -14.84375 21.6875 -13.8125 C 20.78125 -12.78125 19.632812 -11.96875 18.25 -11.375 C 16.875 -10.78125 15.226562 -10.484375 13.3125 -10.484375 L 11.484375 -10.484375 L 11.484375 -17.859375 L 12.8125 -17.90625 C 14.019531 -17.96875 14.925781 -18.269531 15.53125 -18.8125 C 16.144531 -19.363281 16.453125 -20.3125 16.453125 -21.65625 C 16.453125 -22.5625 16.160156 -23.351562 15.578125 -24.03125 C 15.003906 -24.71875 14.1875 -25.0625 13.125 -25.0625 C 12.1875 -25.0625 11.457031 -24.765625 10.9375 -24.171875 C 10.414062 -23.585938 10.15625 -22.851562 10.15625 -21.96875 L 10.15625 0 L 2.234375 0 L 2.234375 -20.875 C 2.234375 -22.570312 2.484375 -24.132812 2.984375 -25.5625 C 3.484375 -27 4.21875 -28.222656 5.1875 -29.234375 C 6.164062 -30.253906 7.359375 -31.046875 8.765625 -31.609375 C 10.179688 -32.171875 11.785156 -32.453125 13.578125 -32.453125 C 15.160156 -32.453125 16.613281 -32.171875 17.9375 -31.609375 C 19.257812 -31.046875 20.398438 -30.273438 21.359375 -29.296875 C 22.316406 -28.328125 23.0625 -27.1875 23.59375 -25.875 C 24.125 -24.570312 24.390625 -23.175781 24.390625 -21.6875 Z M 24.390625 -21.6875 "/></g></g></g><g fill="#ffffff" fill-opacity="1"><g transform="translate(26.088505, 35.042992)"><g><path d="M 20.59375 -31.90625 L 20.59375 -24.515625 L 19.828125 -24.515625 C 18.796875 -24.515625 17.648438 -24.460938 16.390625 -24.359375 C 15.128906 -24.253906 14.007812 -23.941406 13.03125 -23.421875 C 12.363281 -23.054688 11.800781 -22.539062 11.34375 -21.875 C 10.894531 -21.207031 10.441406 -20.390625 9.984375 -19.421875 L 20.59375 -19.421875 L 20.59375 -12.484375 L 9.984375 -12.484375 C 10.410156 -11.484375 10.84375 -10.671875 11.28125 -10.046875 C 11.71875 -9.421875 12.21875 -8.914062 12.78125 -8.53125 C 13.34375 -8.15625 14.003906 -7.882812 14.765625 -7.71875 C 15.523438 -7.550781 16.4375 -7.453125 17.5 -7.421875 C 17.957031 -7.398438 18.4375 -7.390625 18.9375 -7.390625 C 19.4375 -7.390625 19.988281 -7.390625 20.59375 -7.390625 L 20.59375 0 L 15.90625 0 C 13.875 0 11.984375 -0.398438 10.234375 -1.203125 C 8.484375 -2.015625 6.960938 -3.132812 5.671875 -4.5625 C 4.378906 -5.988281 3.359375 -7.671875 2.609375 -9.609375 C 1.867188 -11.554688 1.5 -13.671875 1.5 -15.953125 C 1.5 -18.203125 1.863281 -20.296875 2.59375 -22.234375 C 3.320312 -24.179688 4.332031 -25.867188 5.625 -27.296875 C 6.914062 -28.722656 8.4375 -29.847656 10.1875 -30.671875 C 11.9375 -31.492188 13.84375 -31.90625 15.90625 -31.90625 Z M 20.59375 -31.90625 "/></g></g></g><g fill="#ffffff" fill-opacity="1"><g transform="translate(48.869429, 35.042992)"><g><path d="M 19.328125 -31.90625 L 19.328125 -24.515625 L 11.21875 -24.515625 C 10.757812 -24.515625 10.351562 -24.414062 10 -24.21875 C 9.65625 -24.019531 9.484375 -23.679688 9.484375 -23.203125 C 9.484375 -22.773438 9.785156 -22.285156 10.390625 -21.734375 C 10.992188 -21.191406 11.9375 -20.507812 13.21875 -19.6875 C 14.4375 -18.894531 15.546875 -18.113281 16.546875 -17.34375 C 17.546875 -16.570312 18.398438 -15.78125 19.109375 -14.96875 C 19.828125 -14.164062 20.382812 -13.316406 20.78125 -12.421875 C 21.175781 -11.523438 21.375 -10.5625 21.375 -9.53125 C 21.375 -7.914062 21.191406 -6.5625 20.828125 -5.46875 C 20.460938 -4.375 19.882812 -3.445312 19.09375 -2.6875 C 18.125 -1.71875 16.851562 -1.023438 15.28125 -0.609375 C 13.71875 -0.203125 11.96875 0 10.03125 0 L 1.59375 0 L 1.59375 -7.390625 L 9.984375 -7.390625 C 10.773438 -7.390625 11.441406 -7.523438 11.984375 -7.796875 C 12.535156 -8.066406 12.8125 -8.503906 12.8125 -9.109375 C 12.8125 -9.691406 12.484375 -10.285156 11.828125 -10.890625 C 11.171875 -11.503906 10.191406 -12.25 8.890625 -13.125 C 7.640625 -13.945312 6.539062 -14.742188 5.59375 -15.515625 C 4.65625 -16.296875 3.875 -17.070312 3.25 -17.84375 C 2.632812 -18.613281 2.164062 -19.410156 1.84375 -20.234375 C 1.53125 -21.054688 1.375 -21.9375 1.375 -22.875 C 1.375 -24.363281 1.609375 -25.671875 2.078125 -26.796875 C 2.546875 -27.921875 3.203125 -28.863281 4.046875 -29.625 C 4.898438 -30.382812 5.910156 -30.953125 7.078125 -31.328125 C 8.253906 -31.710938 9.539062 -31.90625 10.9375 -31.90625 Z M 19.328125 -31.90625 "/></g></g></g><g fill="#ffffff" fill-opacity="1"><g transform="translate(71.650352, 35.042992)"><g><path d="M 33.953125 -15.953125 C 33.953125 -13.671875 33.523438 -11.523438 32.671875 -9.515625 C 31.828125 -7.515625 30.664062 -5.769531 29.1875 -4.28125 C 27.71875 -2.789062 25.992188 -1.613281 24.015625 -0.75 C 22.046875 0.113281 19.953125 0.546875 17.734375 0.546875 C 15.453125 0.546875 13.320312 0.109375 11.34375 -0.765625 C 9.375 -1.648438 7.660156 -2.84375 6.203125 -4.34375 C 4.742188 -5.851562 3.59375 -7.601562 2.75 -9.59375 C 1.914062 -11.582031 1.5 -13.703125 1.5 -15.953125 C 1.5 -18.234375 1.925781 -20.375 2.78125 -22.375 C 3.632812 -24.382812 4.796875 -26.132812 6.265625 -27.625 C 7.742188 -29.113281 9.46875 -30.289062 11.4375 -31.15625 C 13.414062 -32.019531 15.515625 -32.453125 17.734375 -32.453125 C 20.035156 -32.453125 22.175781 -32.003906 24.15625 -31.109375 C 26.132812 -30.210938 27.851562 -29.007812 29.3125 -27.5 C 30.769531 -26 31.90625 -24.242188 32.71875 -22.234375 C 33.539062 -20.234375 33.953125 -18.140625 33.953125 -15.953125 Z M 17.734375 -7.5625 C 18.910156 -7.5625 20 -7.789062 21 -8.25 C 22.007812 -8.707031 22.878906 -9.320312 23.609375 -10.09375 C 24.335938 -10.875 24.90625 -11.769531 25.3125 -12.78125 C 25.726562 -13.800781 25.9375 -14.859375 25.9375 -15.953125 C 25.9375 -17.046875 25.738281 -18.09375 25.34375 -19.09375 C 24.945312 -20.09375 24.382812 -20.976562 23.65625 -21.75 C 22.925781 -22.53125 22.050781 -23.15625 21.03125 -23.625 C 20.007812 -24.101562 18.894531 -24.34375 17.6875 -24.34375 C 16.5 -24.34375 15.40625 -24.101562 14.40625 -23.625 C 13.40625 -23.15625 12.546875 -22.53125 11.828125 -21.75 C 11.109375 -20.976562 10.546875 -20.09375 10.140625 -19.09375 C 9.734375 -18.09375 9.53125 -17.046875 9.53125 -15.953125 C 9.53125 -14.859375 9.734375 -13.800781 10.140625 -12.78125 C 10.546875 -11.769531 11.113281 -10.875 11.84375 -10.09375 C 12.570312 -9.320312 13.4375 -8.707031 14.4375 -8.25 C 15.445312 -7.789062 16.546875 -7.5625 17.734375 -7.5625 Z M 17.734375 -7.5625 "/></g></g></g><g fill="#ffffff" fill-opacity="1"><g transform="translate(107.09747, 35.042992)"><g><path d="M 19.328125 -31.90625 L 19.328125 -24.515625 L 11.21875 -24.515625 C 10.757812 -24.515625 10.351562 -24.414062 10 -24.21875 C 9.65625 -24.019531 9.484375 -23.679688 9.484375 -23.203125 C 9.484375 -22.773438 9.785156 -22.285156 10.390625 -21.734375 C 10.992188 -21.191406 11.9375 -20.507812 13.21875 -19.6875 C 14.4375 -18.894531 15.546875 -18.113281 16.546875 -17.34375 C 17.546875 -16.570312 18.398438 -15.78125 19.109375 -14.96875 C 19.828125 -14.164062 20.382812 -13.316406 20.78125 -12.421875 C 21.175781 -11.523438 21.375 -10.5625 21.375 -9.53125 C 21.375 -7.914062 21.191406 -6.5625 20.828125 -5.46875 C 20.460938 -4.375 19.882812 -3.445312 19.09375 -2.6875 C 18.125 -1.71875 16.851562 -1.023438 15.28125 -0.609375 C 13.71875 -0.203125 11.96875 0 10.03125 0 L 1.59375 0 L 1.59375 -7.390625 L 9.984375 -7.390625 C 10.773438 -7.390625 11.441406 -7.523438 11.984375 -7.796875 C 12.535156 -8.066406 12.8125 -8.503906 12.8125 -9.109375 C 12.8125 -9.691406 12.484375 -10.285156 11.828125 -10.890625 C 11.171875 -11.503906 10.191406 -12.25 8.890625 -13.125 C 7.640625 -13.945312 6.539062 -14.742188 5.59375 -15.515625 C 4.65625 -16.296875 3.875 -17.070312 3.25 -17.84375 C 2.632812 -18.613281 2.164062 -19.410156 1.84375 -20.234375 C 1.53125 -21.054688 1.375 -21.9375 1.375 -22.875 C 1.375 -24.363281 1.609375 -25.671875 2.078125 -26.796875 C 2.546875 -27.921875 3.203125 -28.863281 4.046875 -29.625 C 4.898438 -30.382812 5.910156 -30.953125 7.078125 -31.328125 C 8.253906 -31.710938 9.539062 -31.90625 10.9375 -31.90625 Z M 19.328125 -31.90625 "/></g></g></g></g></g><g transform="matrix(1, 0, 0, 1, 11, 43)"><g clip-path="url(#3e7609a866)"><g clip-path="url(#fd7806830b)"><path fill="#d9d9d9" d="M 30.832031 14.363281 C 29.949219 14.363281 29.230469 13.644531 29.230469 12.761719 C 29.230469 11.875 29.949219 11.15625 30.832031 11.15625 L 47.234375 11.15625 L 47.234375 2.867188 C 47.234375 1.984375 47.953125 1.265625 48.835938 1.265625 C 49.332031 1.265625 49.777344 1.492188 50.070312 1.847656 L 68 20.625 C 68.585938 21.242188 68.582031 22.210938 68 22.824219 L 49.992188 41.679688 C 49.386719 42.324219 48.375 42.34375 47.734375 41.738281 C 47.40625 41.425781 47.238281 41.003906 47.238281 40.582031 L 47.234375 40.582031 L 47.234375 32.292969 L 19.730469 32.292969 C 18.84375 32.292969 18.128906 31.574219 18.128906 30.691406 L 18.128906 24.789062 L 3.933594 39.65625 L 18.128906 54.523438 L 18.128906 48.621094 C 18.128906 47.738281 18.84375 47.019531 19.730469 47.019531 L 37.734375 47.019531 C 38.617188 47.019531 39.335938 47.738281 39.335938 48.621094 C 39.335938 49.507812 38.617188 50.222656 37.734375 50.222656 L 21.332031 50.222656 L 21.332031 58.511719 L 21.328125 58.511719 C 21.328125 58.9375 21.160156 59.355469 20.832031 59.671875 C 20.191406 60.277344 19.179688 60.253906 18.574219 59.617188 L 0.566406 40.757812 C -0.015625 40.148438 -0.0234375 39.175781 0.566406 38.558594 L 18.492188 19.78125 C 18.789062 19.425781 19.230469 19.199219 19.726562 19.199219 C 20.609375 19.199219 21.328125 19.917969 21.328125 20.800781 L 21.328125 29.09375 L 48.832031 29.09375 C 49.71875 29.09375 50.4375 29.808594 50.4375 30.695312 L 50.4375 36.597656 L 64.628906 21.730469 L 50.4375 6.859375 L 50.4375 12.761719 C 50.4375 13.648438 49.71875 14.367188 48.832031 14.367188 L 30.828125 14.367188 Z M 30.832031 14.363281 " fill-opacity="1" fill-rule="nonzero"/></g><g clip-path="url(#43bc18bbe1)"><path fill="#ffffff" d="M 30.832031 16.824219 C 29.949219 16.824219 29.230469 16.109375 29.230469 15.222656 C 29.230469 14.339844 29.949219 13.621094 30.832031 13.621094 L 47.234375 13.621094 L 47.234375 5.332031 C 47.234375 4.449219 47.953125 3.730469 48.835938 3.730469 C 49.332031 3.730469 49.777344 3.953125 50.070312 4.308594 L 68 23.085938 C 68.585938 23.707031 68.582031 24.675781 68 25.289062 L 49.992188 44.144531 C 49.386719 44.785156 48.375 44.808594 47.734375 44.203125 C 47.40625 43.890625 47.238281 43.464844 47.238281 43.046875 L 47.234375 43.046875 L 47.234375 34.757812 L 19.730469 34.757812 C 18.84375 34.757812 18.128906 34.039062 18.128906 33.15625 L 18.128906 27.253906 L 3.933594 42.121094 L 18.128906 56.988281 L 18.128906 51.085938 C 18.128906 50.203125 18.84375 49.484375 19.730469 49.484375 L 37.734375 49.484375 C 38.617188 49.484375 39.335938 50.203125 39.335938 51.085938 C 39.335938 51.96875 38.617188 52.6875 37.734375 52.6875 L 21.332031 52.6875 L 21.332031 60.976562 L 21.328125 60.976562 C 21.328125 61.398438 21.160156 61.820312 20.832031 62.132812 C 20.191406 62.742188 19.179688 62.71875 18.574219 62.078125 L 0.566406 43.222656 C -0.015625 42.609375 -0.0234375 41.640625 0.566406 41.019531 L 18.492188 22.242188 C 18.789062 21.886719 19.230469 21.664062 19.726562 21.664062 C 20.609375 21.664062 21.328125 22.382812 21.328125 23.265625 L 21.328125 31.554688 L 48.832031 31.554688 C 49.71875 31.554688 50.4375 32.273438 50.4375 33.15625 L 50.4375 39.058594 L 64.628906 24.191406 L 50.4375 9.324219 L 50.4375 15.226562 C 50.4375 16.109375 49.71875 16.828125 48.832031 16.828125 L 30.828125 16.828125 Z M 30.832031 16.824219 " fill-opacity="1" fill-rule="nonzero"/></g></g></g></svg>